<svg width="138" height="67" viewBox="-14 -14 138 67" fill="none" xmlns="http://www.w3.org/2000/svg"><rect x="-14" y="-14" width="138" height="67" rx="10" fill="#FFFFFF"/>
<path d="M29.7695 4.13368C29.7426 4.11316 29.7101 4.10249 29.677 4.10325C29.6377 4.10311 29.6 4.11954 29.5721 4.14894C29.5441 4.17833 29.5283 4.21832 29.5279 4.26016C29.5284 4.29716 29.5406 4.33289 29.5625 4.36162C31.7697 7.12788 32.98 10.6417 32.9763 14.273C32.9763 22.5413 26.8226 29.2858 19.0965 29.6577C20.6624 28.6501 21.9745 27.2514 22.9194 25.5823C23.8644 23.9132 24.4139 22.0241 24.5203 20.078C24.6268 18.1319 24.2871 16.1875 23.5305 14.4127C22.7739 12.6379 21.6232 11.0861 20.1779 9.89142C18.8408 8.77833 17.9314 7.18294 17.6206 5.40529C17.3098 3.62765 17.6191 1.79023 18.4903 0.238606C18.5033 0.214255 18.5105 0.186934 18.5114 0.158965C18.511 0.131393 18.5039 0.104408 18.4909 0.0805675C18.4779 0.0567272 18.4594 0.0368212 18.4371 0.022733C18.4149 0.00864468 18.3896 0.000843006 18.3637 6.45708e-05C18.3379 -0.000713864 18.3123 0.00555694 18.2893 0.0182849C16.6331 0.96124 15.2242 2.33039 14.1908 4.0013C13.1573 5.67221 12.5321 7.59188 12.3719 9.58584C12.2117 11.5798 12.5216 13.5848 13.2734 15.4187C14.0253 17.2525 15.1952 18.857 16.677 20.0863C18.0091 21.1874 18.9207 22.7667 19.2421 24.5304C19.5636 26.2942 19.2731 28.1223 18.4246 29.6749C10.3886 29.6749 3.87395 22.7797 3.87395 14.273C3.86997 10.6411 5.08055 7.12668 7.28844 4.36026C7.31049 4.33175 7.32225 4.29576 7.32159 4.25881C7.3213 4.21703 7.30549 4.17706 7.27763 4.14766C7.24978 4.11826 7.21214 4.10181 7.17294 4.1019C7.13915 4.10015 7.10598 4.11184 7.07982 4.1347C4.87638 5.94868 3.09245 8.27689 1.86512 10.9404C0.6378 13.6039 -0.00023614 16.5319 6.55596e-08 19.4993C6.55596e-08 30.2701 8.24795 38.9995 18.4245 38.9995C28.601 38.9995 36.8487 30.2716 36.8487 19.5008C36.8484 16.5332 36.2102 13.6052 34.983 10.9414C33.7559 8.27761 31.9724 5.94884 29.7695 4.13385" fill="#ED1C24"/>
<path d="M49.8243 7.62811H50.498V10.5684C50.498 11.6067 50.1331 12.0531 49.2325 12.0531C48.3318 12.0531 47.9669 11.5966 47.9669 10.5587V7.62811H48.6407V6.6868H46.3181V7.62811H46.7921V10.3355C46.7921 12.3054 47.7209 13.0331 49.2322 13.0331C50.7617 13.0331 51.6814 12.315 51.6814 10.3447V7.62811H52.1458V6.6868H49.8243V7.62811ZM52.6007 7.62811H53.1196V12.0147H52.6007V12.8881H55.1232V12.0147H54.2947V10.743H55.2235C56.6802 10.743 57.3995 10.0249 57.3995 8.715C57.3995 7.42436 56.7349 6.68697 55.3053 6.68697H52.6007V7.62811ZM54.2943 9.82116V7.67664H55.2048C55.9787 7.67664 56.2427 8.05505 56.2427 8.73427C56.2427 9.4233 55.9604 9.82116 55.0954 9.82116H54.2943ZM61.5237 8.53052H62.5435V7.22061C62.2613 6.90036 61.6233 6.55103 60.6224 6.55103C58.9015 6.55103 57.8999 7.79314 57.8999 9.7241V9.74355C57.8999 11.8494 59.0198 13.0331 60.7133 13.0331C61.6693 13.0331 62.3249 12.6442 62.6162 12.3061V11.0147H61.6241V11.9657C61.357 12.0432 61.0815 12.0824 60.8047 12.0824C59.7212 12.0824 59.1293 11.3933 59.1293 9.8893V9.4818C59.1293 8.24933 59.63 7.55067 60.7136 7.55067C60.9865 7.54661 61.2588 7.57922 61.524 7.64772L61.5237 8.53052ZM49.0695 18.3624V17.867H50.6651V18.3624H50.2486V20.7874C50.2486 21.4775 50.096 21.9692 49.7908 22.2624C49.4855 22.5556 49.0531 22.7021 48.4935 22.702C47.3234 22.702 46.7383 22.0612 46.7383 20.7797V18.3617H46.3222V17.8663H47.9177V18.3617H47.342V20.9205C47.342 21.374 47.4368 21.6993 47.6265 21.8965C47.8161 22.0936 48.1052 22.1922 48.4936 22.1922C48.8821 22.1922 49.1712 22.0949 49.3608 21.9002C49.5505 21.7055 49.6453 21.3814 49.6453 20.928V18.3624H49.0695ZM53.2384 22.5914V22.1261H53.7448V20.0778C53.7448 19.6785 53.5275 19.4789 53.0928 19.4789C52.9576 19.4741 52.8229 19.4989 52.6971 19.5517C52.5712 19.6045 52.4568 19.6841 52.3609 19.7858C52.1599 20.0148 52.0517 20.3189 52.0595 20.6324V22.1261H52.5864V22.5919H51.0459V22.1261H51.476V19.5898H51.0459V19.0501H51.9199C52.0119 19.3279 52.0588 19.6205 52.0587 19.9151V20.0186C52.1008 19.7132 52.2495 19.436 52.475 19.2423C52.6957 19.0554 52.9705 18.956 53.2524 18.9613C53.3966 18.953 53.5408 18.9762 53.6763 19.0296C53.8117 19.083 53.9354 19.1654 54.0398 19.2718C54.1416 19.3942 54.2196 19.537 54.269 19.6919C54.3184 19.8468 54.3384 20.0106 54.3277 20.1738V22.1261H54.7231V22.5919L53.2384 22.5914ZM55.1115 19.5898V19.0501H56.1521V22.1261H56.6099V22.5919H55.1115V22.1261H55.5693V19.5898H55.1115ZM56.0896 18.3994C56.0175 18.4753 55.9203 18.5178 55.819 18.5178C55.7177 18.5178 55.6205 18.4753 55.5484 18.3994C55.513 18.3622 55.4849 18.3177 55.4658 18.2687C55.4468 18.2197 55.4371 18.1671 55.4374 18.114C55.4378 18.0609 55.4481 18.0085 55.4677 17.9597C55.4874 17.911 55.516 17.8669 55.5519 17.8301C55.5869 17.7926 55.6285 17.7629 55.6744 17.7426C55.7202 17.7223 55.7693 17.7118 55.819 17.7118C55.8686 17.7118 55.9178 17.7223 55.9636 17.7426C56.0094 17.7629 56.0511 17.7926 56.0861 17.8301C56.122 17.8669 56.1506 17.911 56.1702 17.9597C56.1899 18.0085 56.2002 18.0609 56.2005 18.114C56.2008 18.1671 56.1912 18.2197 56.1721 18.2687C56.1531 18.3177 56.125 18.3622 56.0896 18.3994ZM58.9408 19.5898V19.0501H60.4185V19.5898H60.0573L59.024 22.5914H58.2401L57.1649 19.5898H56.8049V19.0501H58.2894V19.5898H57.7886L58.6626 22.1701L59.4876 19.5898H58.9408ZM62.3331 22.6729C62.107 22.6859 61.8807 22.65 61.6679 22.5674C61.4552 22.4848 61.2602 22.3573 61.0948 22.1924C60.7919 21.872 60.6405 21.4111 60.6405 20.8098V20.8023C60.619 20.3153 60.7729 19.838 61.0706 19.4679C61.2118 19.301 61.3856 19.1691 61.5797 19.0815C61.7739 18.9938 61.9837 18.9526 62.1945 18.9606C62.657 18.9606 63.0004 19.1036 63.2246 19.3894C63.4537 19.6896 63.5732 20.068 63.5611 20.4547C63.5621 20.6261 63.5459 20.7971 63.5125 20.9648H61.237C61.2462 21.4035 61.3467 21.7165 61.5384 21.9038C61.783 22.1097 62.0913 22.21 62.4021 22.1848C62.7774 22.2056 63.1498 22.1051 63.4705 21.8965V22.2952C63.3583 22.4243 63.2139 22.5167 63.0542 22.5613C62.8211 22.6401 62.5776 22.678 62.3331 22.6729ZM62.1943 19.4123C62.0655 19.4074 61.9373 19.4327 61.8186 19.4864C61.7 19.54 61.5938 19.6207 61.5075 19.7227C61.3214 19.9605 61.225 20.2635 61.237 20.5729H63.0337V20.499C63.054 20.2071 62.9725 19.9175 62.8048 19.6857C62.7282 19.595 62.6338 19.5235 62.5282 19.4762C62.4227 19.429 62.3087 19.4071 62.1943 19.4123ZM63.991 19.5898V19.0501H64.8644C64.9564 19.3279 65.0034 19.6205 65.0032 19.9151V20.1518C65.0373 19.8341 65.1593 19.5343 65.3535 19.2905C65.4223 19.2029 65.5075 19.1317 65.6037 19.0814C65.6999 19.0311 65.8049 19.0028 65.912 18.9985C65.9719 18.9925 66.0322 19.0022 66.0878 19.0267C66.1434 19.0512 66.1926 19.0897 66.231 19.139V19.6049C65.8148 19.6049 65.5062 19.7133 65.305 19.9302C65.1038 20.1471 65.0033 20.529 65.0035 21.0761V22.1261H65.614V22.5919H63.991V22.1261H64.4211V19.5898H63.991ZM68.3267 19.9449V19.4567C68.1928 19.4211 68.0553 19.4037 67.9173 19.405C67.4318 19.405 67.189 19.5898 67.189 19.9594C67.1809 20.0455 67.1979 20.1321 67.2376 20.2075C67.2774 20.2828 67.3379 20.3434 67.4111 20.3808C67.6057 20.4582 67.808 20.5115 68.014 20.5397C68.2341 20.5652 68.4467 20.6395 68.6382 20.7579C68.7661 20.8485 68.8694 20.9734 68.9376 21.1201C69.0058 21.2668 69.0365 21.43 69.0268 21.5933C69.0342 21.7464 69.0065 21.8991 68.946 22.0382C68.8856 22.1774 68.7943 22.2987 68.68 22.3917C68.4192 22.5888 68.1043 22.6877 67.785 22.6728C67.3604 22.6892 66.942 22.5596 66.5918 22.3031V21.593H67.112V22.1401C67.3065 22.208 67.5103 22.2405 67.7149 22.2362C68.2236 22.2362 68.478 22.0316 68.478 21.6226C68.4852 21.5446 68.4729 21.4661 68.4424 21.3948C68.412 21.3236 68.3644 21.2622 68.3046 21.2168C68.1248 21.1314 67.9343 21.0741 67.7392 21.0467C67.5309 21.0137 67.3271 20.9542 67.1322 20.8693C66.9868 20.8006 66.8629 20.6892 66.7749 20.548C66.691 20.3841 66.6514 20.1985 66.6605 20.012C66.6516 19.8627 66.677 19.7133 66.7344 19.5768C66.7918 19.4402 66.8796 19.3206 66.99 19.2283C67.247 19.0389 67.5555 18.9453 67.8675 18.9622C68.2116 18.94 68.5536 19.0331 68.8456 19.2283V19.9449H68.3267ZM69.4643 19.5898V19.0501H70.5049V22.1261H70.9628V22.5919H69.4643V22.1261H69.9222V19.5898H69.4643ZM70.4424 18.3994C70.3703 18.4753 70.2731 18.5178 70.1719 18.5178C70.0706 18.5178 69.9734 18.4753 69.9013 18.3994C69.8658 18.3622 69.8378 18.3177 69.8187 18.2687C69.7996 18.2197 69.79 18.1671 69.7903 18.114C69.7906 18.0609 69.8009 18.0085 69.8206 17.9597C69.8402 17.911 69.8689 17.8669 69.9048 17.8301C69.9398 17.7926 69.9814 17.7629 70.0272 17.7426C70.0731 17.7223 70.1222 17.7118 70.1719 17.7118C70.2215 17.7118 70.2706 17.7223 70.3165 17.7426C70.3623 17.7629 70.4039 17.7926 70.4389 17.8301C70.4748 17.8669 70.5035 17.911 70.5231 17.9597C70.5428 18.0085 70.5531 18.0609 70.5534 18.114C70.5537 18.1671 70.5441 18.2197 70.525 18.2687C70.506 18.3177 70.4779 18.3622 70.4424 18.3994ZM73.4809 18.1111V17.6157H74.6056V22.1261H75.0357V22.5919H74.1614C74.0682 22.3067 74.0212 22.0067 74.0226 21.7047C73.9571 21.9886 73.8045 22.241 73.589 22.4218C73.3637 22.5994 73.0886 22.6906 72.8086 22.6805C72.6097 22.6873 72.4122 22.6423 72.2333 22.5495C72.0544 22.4567 71.8993 22.3189 71.7816 22.1479C71.5103 21.7326 71.3763 21.2329 71.4008 20.7276V20.721C71.4008 20.1686 71.5361 19.7386 71.8067 19.4309C71.9331 19.282 72.0879 19.1637 72.2608 19.084C72.4337 19.0043 72.6207 18.965 72.809 18.9687C73.438 18.9687 73.8427 19.2792 74.023 19.9002V18.1111H73.4809ZM72.9329 22.2218C73.0775 22.2237 73.2208 22.193 73.3535 22.1318C73.4862 22.0707 73.6053 21.9803 73.703 21.8667C73.8129 21.7367 73.8976 21.5849 73.9523 21.42C74.007 21.2551 74.0308 21.0803 74.0221 20.9056V20.7734C74.0221 20.3347 73.918 20.0069 73.7099 19.7902C73.6075 19.683 73.4858 19.599 73.3523 19.5431C73.2187 19.4872 73.0759 19.4606 72.9325 19.4648C72.3084 19.4648 71.9964 19.8518 71.9964 20.6256V20.8918C71.9781 21.2368 72.0644 21.579 72.2427 21.8677C72.3213 21.9829 72.4255 22.0756 72.546 22.1374C72.6664 22.1991 72.7994 22.2282 72.9329 22.2218ZM75.68 20.0925V19.3823C75.9436 19.1014 76.3251 18.961 76.8247 18.961C77.6432 18.961 78.0571 19.3996 78.0664 20.277V21.8217C78.0588 21.9189 78.0807 22.0162 78.1289 22.099C78.1609 22.1315 78.1993 22.156 78.2413 22.1706C78.2833 22.1852 78.3279 22.1897 78.3717 22.1836C78.4203 22.1842 78.4689 22.1817 78.5173 22.1762V22.5385C78.4004 22.5973 78.2719 22.6252 78.1427 22.6198C77.7311 22.6198 77.5114 22.3783 77.4837 21.8953C77.3542 22.4227 77.0052 22.6865 76.4366 22.6865C76.1776 22.6996 75.9233 22.61 75.7227 22.435C75.6323 22.3492 75.5611 22.2429 75.5143 22.1239C75.4675 22.005 75.4463 21.8764 75.4522 21.7475V21.7401C75.4499 21.603 75.4784 21.4674 75.5355 21.3446C75.5814 21.2427 75.6437 21.1502 75.7193 21.071C75.8139 20.9877 75.922 20.9238 76.0384 20.8825C76.184 20.8233 76.302 20.7802 76.3922 20.7531C76.4824 20.7261 76.6223 20.6903 76.8118 20.6459C77.0022 20.6136 77.1841 20.5393 77.346 20.4278C77.3939 20.3822 77.4313 20.3255 77.4554 20.2621C77.4794 20.1986 77.4895 20.1301 77.4848 20.0619V20.0472C77.4873 19.9608 77.4718 19.8748 77.4394 19.7956C77.407 19.7163 77.3585 19.6457 77.2974 19.5888C77.1391 19.4589 76.9414 19.3957 76.7422 19.4114C76.5598 19.4127 76.3791 19.4477 76.208 19.5149V20.0917L75.68 20.0925ZM76.6443 22.2588C76.755 22.2584 76.8644 22.2332 76.9654 22.1848C77.0664 22.1363 77.1567 22.0658 77.2305 21.9778C77.3177 21.875 77.385 21.7549 77.4286 21.6243C77.4721 21.4938 77.4911 21.3553 77.4843 21.2169V20.6928C77.2953 20.8387 77.0841 20.9487 76.86 21.0181C76.6309 21.094 76.409 21.193 76.1975 21.3138C76.1457 21.354 76.1047 21.4079 76.0786 21.4702C76.0524 21.5325 76.042 21.601 76.0484 21.6689V21.7059C76.048 22.0745 76.2466 22.2588 76.6443 22.2588ZM80.9731 18.1111V17.6157H82.097V22.1261H82.5271V22.5919H81.6529C81.5597 22.3067 81.5128 22.0067 81.5141 21.7047C81.4487 21.9886 81.296 22.241 81.0805 22.4218C80.8552 22.5994 80.5802 22.6906 80.3001 22.6805C80.1013 22.6873 79.9039 22.6424 79.725 22.5496C79.5462 22.4569 79.3912 22.3191 79.2734 22.1483C79.0021 21.733 78.8682 21.2333 78.8927 20.7279V20.721C78.8927 20.1686 79.028 19.7386 79.2985 19.4309C79.4249 19.282 79.5798 19.1637 79.7527 19.084C79.9256 19.0043 80.1125 18.965 80.3009 18.9687C80.9299 18.9687 81.3345 19.2792 81.5149 19.9002V18.1111H80.9731ZM80.4251 22.2218C80.5697 22.2237 80.713 22.193 80.8457 22.1318C80.9784 22.0706 81.0975 21.9803 81.1952 21.8667C81.305 21.7367 81.3897 21.5849 81.4445 21.42C81.4992 21.2551 81.5229 21.0803 81.5142 20.9056V20.7734C81.5142 20.3347 81.4102 20.0069 81.202 19.7902C81.0996 19.683 80.978 19.599 80.8444 19.5431C80.7108 19.4872 80.5681 19.4606 80.4246 19.4648C79.8006 19.4648 79.4886 19.8518 79.4886 20.6256V20.8918C79.4703 21.2368 79.5566 21.579 79.7348 21.8677C79.8135 21.9829 79.9177 22.0756 80.0381 22.1374C80.1586 22.1991 80.2915 22.2282 80.4251 22.2218ZM84.2127 18.3624V17.867H86.2454C86.7171 17.867 87.0732 17.9976 87.3137 18.2588C87.4392 18.4064 87.5357 18.5792 87.5976 18.7671C87.6596 18.9551 87.6856 19.1543 87.6744 19.3531C87.687 19.5555 87.6579 19.7583 87.5889 19.9474C87.52 20.1364 87.413 20.3071 87.2755 20.4472C87.0096 20.6986 86.6269 20.8243 86.1273 20.8243H85.2741V22.1263H85.947V22.5921H84.2127V22.1261H84.6706V18.3624H84.2127ZM85.2741 20.3069H86.058C86.4282 20.3069 86.6918 20.2256 86.8489 20.0629C86.9322 19.9669 86.9961 19.8538 87.0367 19.7304C87.0772 19.6071 87.0936 19.4762 87.0848 19.3458C87.1007 19.0949 87.0249 18.8472 86.8732 18.6546C86.7321 18.4944 86.4997 18.4143 86.1761 18.4143H85.2743L85.2741 20.3069ZM89.7005 22.6728C89.4744 22.6857 89.2481 22.6498 89.0353 22.5672C88.8225 22.4847 88.6276 22.3571 88.4622 22.1922C88.1593 21.8719 88.0078 21.411 88.0078 20.8096V20.8022C87.9864 20.3152 88.1402 19.8378 88.4379 19.4677C88.5792 19.3008 88.753 19.1689 88.9471 19.0813C89.1413 18.9937 89.3511 18.9524 89.5618 18.9605C90.0244 18.9605 90.3677 19.1034 90.592 19.3893C90.821 19.6894 90.9406 20.0678 90.9285 20.4545C90.9295 20.6259 90.9132 20.797 90.8799 20.9646H88.6039C88.6131 21.4034 88.7136 21.7163 88.9053 21.9036C89.1499 22.1095 89.4582 22.2098 89.769 22.1846C90.1443 22.2054 90.5167 22.105 90.8374 21.8963V22.2952C90.7252 22.4243 90.5808 22.5167 90.4211 22.5613C90.188 22.6401 89.9445 22.6778 89.7 22.6728H89.7005ZM89.5618 19.4123C89.433 19.4074 89.3048 19.4327 89.1862 19.4864C89.0675 19.54 88.9613 19.6207 88.875 19.7227C88.689 19.9605 88.5926 20.2635 88.6045 20.5729H90.4013V20.499C90.4216 20.2071 90.34 19.9175 90.1723 19.6857C90.0957 19.5949 90.0012 19.5234 89.8955 19.4761C89.7899 19.4288 89.6758 19.407 89.5614 19.4123H89.5618ZM91.3581 19.5898V19.0501H92.2318C92.3238 19.3279 92.3707 19.6205 92.3706 19.9151V20.1518C92.4047 19.8341 92.5266 19.5343 92.7209 19.2905C92.7895 19.2029 92.8747 19.1316 92.9708 19.0812C93.0669 19.0308 93.1718 19.0025 93.2789 18.998C93.3388 18.992 93.3991 19.0017 93.4547 19.0262C93.5103 19.0507 93.5595 19.0892 93.5979 19.1385V19.6043C93.1817 19.6043 92.873 19.7128 92.6719 19.9297C92.4707 20.1465 92.3702 20.5285 92.3704 21.0756V22.1261H92.9809V22.5919H91.3581V22.1261H91.7876V19.5898H91.3581ZM96.7483 22.5916C96.6563 22.3137 96.6094 22.0212 96.6096 21.7266V21.6823C96.5664 21.9705 96.4242 22.2313 96.2108 22.4142C96.0054 22.5898 95.7491 22.6839 95.4859 22.6804C95.3332 22.6901 95.1804 22.6651 95.0374 22.6071C94.8945 22.5491 94.7648 22.4594 94.6569 22.3439C94.4604 22.1196 94.3621 21.7758 94.3621 21.3125V19.5898H93.9668V19.0501H94.9447V21.4085C94.9276 21.6216 94.9858 21.8339 95.1078 22.0037C95.1745 22.0711 95.2537 22.1227 95.3404 22.1552C95.427 22.1877 95.5192 22.2003 95.6107 22.1922C95.745 22.1966 95.8786 22.1702 96.0025 22.1148C96.1264 22.0594 96.2377 21.9762 96.3288 21.871C96.5224 21.6385 96.6232 21.3348 96.6098 21.0243V19.5898H96.0822V19.0501H97.1928V22.1261H97.6229V22.5919L96.7483 22.5916ZM98.2675 20.0927V19.3825C98.5311 19.1016 98.9126 18.9611 99.4122 18.9611C100.231 18.9611 100.645 19.3998 100.654 20.2771V21.8217C100.646 21.9189 100.668 22.0162 100.716 22.099C100.748 22.1315 100.787 22.156 100.829 22.1706C100.871 22.1852 100.915 22.1897 100.959 22.1836C101.008 22.1842 101.056 22.1817 101.105 22.1762V22.5385C100.988 22.5973 100.859 22.6252 100.73 22.6198C100.319 22.6198 100.099 22.3783 100.071 21.8953C99.9418 22.4227 99.5927 22.6865 99.0241 22.6865C98.7652 22.6996 98.5108 22.61 98.3102 22.435C98.2199 22.3492 98.1487 22.2429 98.1019 22.1239C98.0551 22.005 98.0338 21.8764 98.0397 21.7475V21.7401C98.0374 21.603 98.066 21.4674 98.123 21.3446C98.169 21.2427 98.2312 21.1502 98.3069 21.071C98.4014 20.9877 98.5096 20.9238 98.6259 20.8825C98.7715 20.8233 98.8895 20.7802 98.9797 20.7531C99.0699 20.7261 99.2098 20.6903 99.3993 20.6459C99.5897 20.6136 99.7716 20.5393 99.9335 20.4278C99.9814 20.3822 100.019 20.3255 100.043 20.2621C100.067 20.1986 100.077 20.1301 100.072 20.0619V20.0472C100.075 19.9608 100.059 19.8748 100.027 19.7956C99.9945 19.7163 99.946 19.6457 99.885 19.5888C99.7266 19.4589 99.5289 19.3957 99.3297 19.4114C99.1473 19.4127 98.9666 19.4477 98.7955 19.5149V20.0917L98.2675 20.0927ZM99.2318 22.259C99.3425 22.2586 99.452 22.2333 99.5529 22.1849C99.6539 22.1365 99.7442 22.066 99.818 21.978C99.9052 21.8752 99.9725 21.7551 100.016 21.6245C100.06 21.4939 100.079 21.3555 100.072 21.2171V20.6929C99.8829 20.8388 99.6717 20.9489 99.4476 21.0182C99.2184 21.0942 98.9966 21.1932 98.785 21.314C98.7333 21.3541 98.6922 21.408 98.6661 21.4703C98.6399 21.5326 98.6295 21.6011 98.6359 21.6691V21.7061C98.6354 22.0746 98.834 22.2588 99.2316 22.2588L99.2318 22.259ZM103.658 22.5918V22.1261H104.165V20.0778C104.165 19.6785 103.947 19.4789 103.513 19.4789C103.377 19.4741 103.243 19.4989 103.117 19.5517C102.991 19.6045 102.877 19.6841 102.781 19.7858C102.58 20.0148 102.471 20.3189 102.479 20.6324V22.1261H103.006V22.5919H101.465V22.1261H101.895V19.5898H101.465V19.0501H102.339C102.431 19.3279 102.478 19.6205 102.478 19.9151V20.0186C102.52 19.7132 102.669 19.436 102.894 19.2423C103.115 19.0554 103.39 18.956 103.672 18.9613C103.816 18.953 103.96 18.9762 104.096 19.0296C104.231 19.083 104.355 19.1654 104.459 19.2718C104.561 19.3942 104.639 19.537 104.688 19.6919C104.738 19.8468 104.758 20.0106 104.747 20.1738V22.1261H105.143V22.5919L103.658 22.5918ZM105.788 20.0928V19.3827C106.051 19.1018 106.433 18.9613 106.933 18.9613C107.751 18.9613 108.165 19.4 108.174 20.2773V21.8217C108.167 21.9189 108.189 22.0161 108.237 22.099C108.269 22.1315 108.307 22.156 108.349 22.1706C108.391 22.1852 108.436 22.1897 108.479 22.1836C108.528 22.1842 108.577 22.1817 108.625 22.1762V22.5385C108.508 22.5973 108.38 22.6252 108.25 22.6198C107.839 22.6198 107.619 22.3783 107.591 21.8953C107.462 22.4227 107.113 22.6865 106.544 22.6865C106.285 22.6996 106.031 22.61 105.83 22.435C105.74 22.3492 105.669 22.2429 105.622 22.1239C105.575 22.005 105.554 21.8764 105.56 21.7475V21.7401C105.558 21.603 105.586 21.4674 105.643 21.3446C105.689 21.2427 105.751 21.1502 105.827 21.071C105.922 20.9877 106.03 20.9238 106.146 20.8825C106.292 20.8233 106.41 20.7802 106.5 20.7531C106.59 20.7261 106.73 20.6903 106.92 20.6459C107.11 20.6136 107.292 20.5393 107.454 20.4278C107.502 20.3822 107.539 20.3255 107.563 20.262C107.587 20.1986 107.597 20.1301 107.592 20.0619V20.0472C107.595 19.9608 107.579 19.875 107.546 19.7959C107.513 19.7168 107.465 19.6465 107.404 19.5898C107.245 19.4599 107.048 19.3967 106.848 19.4124C106.666 19.4137 106.485 19.4487 106.314 19.5159V20.0927L105.788 20.0928ZM106.752 22.2592C106.863 22.2588 106.972 22.2335 107.073 22.1851C107.174 22.1367 107.265 22.0662 107.338 21.9782C107.426 21.8754 107.493 21.7552 107.536 21.6247C107.58 21.4941 107.599 21.3557 107.592 21.2173V20.6931C107.403 20.839 107.192 20.9491 106.968 21.0184C106.739 21.0944 106.517 21.1934 106.305 21.3141C106.254 21.3543 106.213 21.4082 106.186 21.4705C106.16 21.5328 106.15 21.6013 106.156 21.6692V21.7063C106.155 22.0746 106.354 22.2588 106.752 22.2588L106.752 22.2592ZM48.4242 26.8908V26.3954H49.548V30.9054H49.9781V31.3713H49.104C49.0108 31.0861 48.9638 30.786 48.9652 30.4841C48.8997 30.7679 48.7471 31.0204 48.5316 31.2012C48.3063 31.3788 48.0312 31.4699 47.7512 31.4599C47.5523 31.4666 47.355 31.4217 47.1761 31.3289C46.9972 31.2362 46.8423 31.0984 46.7245 30.9276C46.4532 30.5123 46.3192 30.0126 46.3438 29.5072V29.4998C46.3438 28.9475 46.479 28.5174 46.7496 28.2097C46.876 28.0608 47.0309 27.9425 47.2038 27.8628C47.3767 27.7831 47.5636 27.7438 47.7519 27.7476C48.3809 27.7476 48.7856 28.0581 48.9659 28.6791V26.8908H48.4242ZM47.876 31.0015C48.0206 31.0033 48.1639 30.9727 48.2966 30.9115C48.4293 30.8503 48.5484 30.76 48.6461 30.6464C48.7559 30.5164 48.8406 30.3646 48.8954 30.1997C48.9501 30.0348 48.9738 29.86 48.9652 29.6853V29.5522C48.9652 29.1135 48.8611 28.7857 48.6529 28.569C48.5505 28.4618 48.4289 28.3778 48.2953 28.3219C48.1618 28.266 48.019 28.2394 47.8755 28.2437C47.2515 28.2437 46.9395 28.6306 46.9395 29.4044V29.6706C46.9212 30.0156 47.0075 30.3578 47.1857 30.6465C47.2643 30.7619 47.3685 30.8547 47.4889 30.9166C47.6094 30.9786 47.7424 31.0077 47.876 31.0015ZM52.0522 31.4524C51.8261 31.4654 51.5998 31.4295 51.387 31.3469C51.1742 31.2643 50.9793 31.1368 50.8139 30.9719C50.511 30.6515 50.3595 30.1906 50.3595 29.5892V29.5818C50.3381 29.0948 50.4919 28.6175 50.7896 28.2474C50.9309 28.0805 51.1047 27.9486 51.2988 27.8609C51.493 27.7733 51.7028 27.7321 51.9135 27.7401C52.3761 27.7401 52.7194 27.8831 52.9437 28.1689C53.1727 28.4691 53.2923 28.8474 53.2802 29.2342C53.2812 29.4056 53.2649 29.5766 53.2316 29.7443H50.9562C50.9654 30.183 51.0659 30.496 51.2577 30.6832C51.5022 30.8892 51.8106 30.9895 52.1214 30.9643C52.4966 30.9851 52.869 30.8846 53.1897 30.676V31.0752C53.0776 31.2043 52.9331 31.2967 52.7734 31.3413C52.5403 31.4201 52.2967 31.4575 52.0522 31.4524ZM51.9134 28.1919C51.7846 28.1871 51.6563 28.2124 51.5377 28.266C51.419 28.3197 51.3129 28.4003 51.2266 28.5024C51.0405 28.7401 50.9441 29.0432 50.9561 29.3525H52.7528V29.2785C52.7731 28.9866 52.6916 28.6969 52.5239 28.4652C52.4473 28.3746 52.3528 28.3031 52.2473 28.2559C52.1418 28.2087 52.0279 28.1869 51.9135 28.1921L51.9134 28.1919ZM57.9278 27.874V27.2455C57.6627 27.1467 57.3837 27.0967 57.1029 27.0976C56.6173 27.0976 56.2577 27.2455 56.024 27.5413C55.7904 27.8371 55.6736 28.2485 55.6737 28.7756V29.0713C55.6737 29.6875 55.7986 30.1557 56.0483 30.4761C56.298 30.7965 56.6703 30.9567 57.1652 30.9567C57.452 30.9525 57.735 30.8871 57.9977 30.7644V30.0399H58.5111V30.9191C58.3566 31.0951 58.1668 31.2316 57.9558 31.3183C57.6914 31.4316 57.4082 31.4869 57.1233 31.481C56.8429 31.4935 56.5633 31.4408 56.3039 31.3266C56.0446 31.2123 55.8117 31.0392 55.6214 30.8194C55.2444 30.3783 55.0559 29.7634 55.0559 28.9746V28.9599C55.0559 28.2159 55.2305 27.6269 55.5795 27.193C55.9285 26.759 56.4222 26.5421 57.0605 26.5423C57.6987 26.5423 58.1588 26.7074 58.4408 27.0377V27.8732L57.9278 27.874ZM59.024 28.3695V27.8297H60.0646V30.9054H60.5224V31.3713H59.024V30.9054H59.4818V28.3691L59.024 28.3695ZM60.0021 27.1791C59.93 27.2549 59.8328 27.2974 59.7315 27.2974C59.6302 27.2974 59.533 27.2549 59.4609 27.1791C59.4255 27.1418 59.3974 27.0974 59.3783 27.0483C59.3593 26.9993 59.3496 26.9467 59.3499 26.8936C59.3503 26.8406 59.3606 26.7881 59.3802 26.7394C59.3999 26.6906 59.4285 26.6465 59.4644 26.6098C59.4994 26.5723 59.541 26.5425 59.5869 26.5222C59.6327 26.5019 59.6818 26.4915 59.7315 26.4915C59.7811 26.4915 59.8303 26.5019 59.8761 26.5222C59.9219 26.5425 59.9636 26.5723 59.9986 26.6098C60.0345 26.6465 60.0631 26.6906 60.0827 26.7394C60.1024 26.7881 60.1127 26.8406 60.113 26.8936C60.1133 26.9467 60.1037 26.9993 60.0846 27.0483C60.0656 27.0974 60.0375 27.1418 60.0021 27.1791ZM62.5965 31.4524C62.3704 31.4654 62.1441 31.4295 61.9313 31.3469C61.7185 31.2643 61.5236 31.1368 61.3582 30.9719C61.0553 30.6515 60.9038 30.1906 60.9038 29.5892V29.5818C60.8824 29.0948 61.0362 28.6175 61.3339 28.2474C61.4751 28.0805 61.6489 27.9486 61.8431 27.8609C62.0373 27.7733 62.2471 27.7321 62.4578 27.7401C62.9203 27.7401 63.2637 27.8831 63.4879 28.1689C63.717 28.4691 63.8366 28.8474 63.8244 29.2342C63.8255 29.4056 63.8092 29.5766 63.7759 29.7443H61.501C61.5102 30.183 61.6107 30.496 61.8024 30.6832C62.047 30.8892 62.3553 30.9895 62.6661 30.9643C63.0414 30.9851 63.4138 30.8846 63.7345 30.676V31.0752C63.6223 31.2043 63.4779 31.2967 63.3182 31.3413C63.085 31.4201 62.8412 31.4577 62.5966 31.4526L62.5965 31.4524ZM62.4577 28.1919C62.3289 28.1871 62.2006 28.2124 62.082 28.266C61.9633 28.3197 61.8571 28.4003 61.7709 28.5024C61.5848 28.7401 61.4884 29.0432 61.5004 29.3525H63.2971V29.2785C63.3174 28.9866 63.2359 28.6969 63.0682 28.4652C62.9916 28.3746 62.8972 28.3032 62.7917 28.256C62.6862 28.2088 62.5723 28.187 62.458 28.1921L62.4577 28.1919ZM66.4465 31.3707V30.9049H66.9529V28.8574C66.9529 28.4582 66.7355 28.2585 66.3008 28.2585C66.1657 28.2538 66.031 28.2786 65.9051 28.3313C65.7793 28.3841 65.6649 28.4638 65.569 28.5654C65.368 28.7944 65.2597 29.0986 65.2675 29.412V30.9056H65.7947V31.3714H64.2547V30.9056H64.6848V28.3693H64.2547V27.8296H65.1287C65.2207 28.1074 65.2677 28.4 65.2675 28.6946V28.7981C65.3096 28.4927 65.4583 28.2155 65.6838 28.0218C65.9045 27.8349 66.1794 27.7355 66.4612 27.7408C66.6054 27.7325 66.7497 27.7557 66.8851 27.8091C67.0205 27.8625 67.1442 27.9449 67.2486 28.0512C67.3505 28.1736 67.4284 28.3165 67.4778 28.4714C67.5273 28.6263 67.5472 28.7901 67.5366 28.9533V30.9052H67.9319V31.3711L66.4465 31.3707ZM70.4908 28.8273V28.2506C70.3234 28.203 70.1506 28.1805 69.9774 28.184C69.8415 28.1796 69.7062 28.2041 69.5793 28.2562C69.4525 28.3082 69.3366 28.3868 69.2386 28.4871C69.134 28.6079 69.0539 28.7503 69.0032 28.9055C68.9525 29.0607 68.9323 29.2253 68.9438 29.3892V29.6554C68.9438 30.5277 69.3045 30.9639 70.026 30.9639C70.3983 30.9522 70.7596 30.8264 71.0666 30.6016V31.06C70.946 31.1805 70.8031 31.2727 70.6469 31.3305C70.4284 31.4167 70.1966 31.4581 69.9636 31.4524C69.7456 31.4629 69.5281 31.4238 69.3253 31.3378C69.1226 31.2518 68.9394 31.1207 68.7879 30.9534C68.4941 30.6208 68.3473 30.1636 68.3473 29.582V29.5745C68.342 29.2854 68.3892 28.998 68.4861 28.7279C68.5637 28.5064 68.6926 28.3093 68.8607 28.1549C69.0123 28.0203 69.1849 27.9153 69.3706 27.8444C69.5567 27.7748 69.7526 27.7398 69.9498 27.741C70.4401 27.741 70.7938 27.8519 71.0112 28.0737V28.8279L70.4908 28.8273ZM71.5452 28.3689V27.8292H72.5858V30.9049H73.0437V31.3707H71.5452V30.9049H72.0037V28.3686L71.5452 28.3689ZM72.5233 27.1786C72.4512 27.2544 72.354 27.2969 72.2527 27.2969C72.1514 27.2969 72.0542 27.2544 71.9821 27.1786C71.9467 27.1413 71.9186 27.0968 71.8996 27.0478C71.8805 26.9988 71.8709 26.9462 71.8712 26.8931C71.8715 26.8401 71.8818 26.7876 71.9015 26.7389C71.9211 26.6901 71.9497 26.646 71.9856 26.6093C72.0206 26.5718 72.0623 26.542 72.1081 26.5217C72.1539 26.5014 72.2031 26.4909 72.2527 26.4909C72.3024 26.4909 72.3515 26.5014 72.3973 26.5217C72.4432 26.542 72.4848 26.5718 72.5198 26.6093C72.5557 26.646 72.5843 26.6901 72.604 26.7389C72.6236 26.7876 72.6339 26.8401 72.6343 26.8931C72.6346 26.9462 72.6249 26.9988 72.6059 27.0478C72.5868 27.0968 72.5587 27.1413 72.5233 27.1786ZM73.6888 28.8716V28.1615C73.9523 27.8806 74.3339 27.7401 74.8334 27.7401C75.652 27.7401 76.0659 28.1788 76.0752 29.0561V30.6014C76.0675 30.6986 76.0894 30.7958 76.1377 30.8787C76.1697 30.9112 76.2081 30.9356 76.2501 30.9503C76.2921 30.9649 76.3366 30.9693 76.3804 30.9632C76.4291 30.9639 76.4777 30.9614 76.5261 30.9558V31.3182C76.4092 31.3769 76.2807 31.4048 76.1515 31.3995C75.7399 31.3995 75.5202 31.158 75.4925 30.675C75.363 31.2024 75.014 31.4661 74.4454 31.4661C74.1864 31.4793 73.9321 31.3897 73.7314 31.2147C73.6411 31.1288 73.5699 31.0225 73.5231 30.9036C73.4763 30.7846 73.4551 30.656 73.4609 30.5272V30.5197C73.4586 30.3827 73.4872 30.2471 73.5442 30.1242C73.5902 30.0224 73.6524 29.9298 73.7281 29.8507C73.8226 29.7674 73.9308 29.7035 74.0471 29.6621C74.1928 29.6029 74.3107 29.5598 74.4009 29.5328C74.4912 29.5057 74.631 29.47 74.8206 29.4256C75.0109 29.3932 75.1929 29.319 75.3548 29.2075C75.4026 29.1619 75.4401 29.1052 75.4641 29.0417C75.4882 28.9783 75.4983 28.9098 75.4936 28.8415V28.8268C75.4961 28.7404 75.4806 28.6545 75.4482 28.5752C75.4158 28.496 75.3673 28.4253 75.3062 28.3684C75.1479 28.2385 74.9502 28.1754 74.7509 28.1911C74.5686 28.1923 74.3878 28.2273 74.2167 28.2946V28.8727L73.6888 28.8716ZM74.653 31.038C74.7638 31.0375 74.8732 31.0123 74.9742 30.9639C75.0752 30.9155 75.1655 30.845 75.2393 30.757C75.3265 30.6542 75.3938 30.534 75.4373 30.4035C75.4809 30.2729 75.4998 30.1345 75.4931 29.9961V29.4719C75.3041 29.6178 75.0929 29.7279 74.8688 29.7972C74.6397 29.8732 74.4178 29.9722 74.2063 30.093C74.1545 30.1331 74.1135 30.187 74.0873 30.2493C74.0612 30.3116 74.0508 30.3801 74.0571 30.448V30.4851C74.0569 30.854 74.2556 31.0385 74.6532 31.0385L74.653 31.038ZM78.6488 28.7239V28.2359C78.515 28.2002 78.3775 28.1828 78.2395 28.1841C77.7539 28.1841 77.5111 28.3689 77.5111 28.7386C77.5031 28.8246 77.5201 28.9112 77.5598 28.9866C77.5996 29.062 77.6601 29.1225 77.7333 29.1599C77.9279 29.2373 78.1301 29.2907 78.3361 29.3189C78.5562 29.3444 78.7689 29.4187 78.9604 29.537C79.0883 29.6277 79.1915 29.7526 79.2597 29.8992C79.3279 30.0459 79.3587 30.2091 79.349 30.3725C79.3564 30.5256 79.3286 30.6783 79.2682 30.8174C79.2078 30.9565 79.1165 31.0778 79.0022 31.1709C78.7414 31.3679 78.4265 31.4668 78.1072 31.4519C77.6826 31.4683 77.2642 31.3387 76.914 31.0823V30.3721H77.4342V30.9193C77.6287 30.9872 77.8325 31.0196 78.0371 31.0153C78.5458 31.0153 78.8002 30.8108 78.8002 30.4017C78.8073 30.3238 78.7951 30.2452 78.7646 30.174C78.7342 30.1027 78.6866 30.0413 78.6268 29.9959C78.447 29.9105 78.2565 29.8532 78.0613 29.8258C77.8531 29.7929 77.6493 29.7333 77.4543 29.6484C77.309 29.5798 77.185 29.4683 77.0971 29.3272C77.0132 29.1632 76.9736 28.9777 76.9827 28.7912C76.9738 28.6418 76.9992 28.4925 77.0566 28.3559C77.114 28.2194 77.2017 28.0998 77.3122 28.0074C77.5692 27.818 77.8777 27.7245 78.1897 27.7413C78.5338 27.7191 78.8758 27.8122 79.1678 28.0074V28.7245L78.6488 28.7239ZM83.6781 31.3707V30.9049H84.2334L83.9629 29.9734H82.1939L81.9164 30.9049H82.4852V31.3707H81.0151V30.9049H81.3483L82.6386 26.6463H83.5681L84.8515 30.9049H85.1846V31.3707H83.6781ZM83.0816 26.9495L82.3532 29.4337H83.8031L83.0816 26.9495ZM85.5511 28.3698V27.8301H86.4251C86.5172 28.1079 86.5641 28.4005 86.564 28.6951V28.7321C86.6342 28.4448 86.793 28.191 87.0148 28.0113C87.2516 27.8261 87.5399 27.7308 87.8335 27.7408C88.0237 27.7322 88.2131 27.7724 88.3857 27.8579C88.5583 27.9435 88.7091 28.0719 88.8255 28.2325C89.081 28.6114 89.2082 29.0715 89.1863 29.5375V29.5449C89.1863 30.1512 89.0545 30.6207 88.7909 30.9534C88.6702 31.113 88.5167 31.2409 88.3424 31.3274C88.168 31.4139 87.9774 31.4566 87.7851 31.4524C87.5059 31.4637 87.2308 31.3781 87.0012 31.2084C86.7889 31.0394 86.6352 30.8002 86.5641 30.5282V32.0143H87.0915V32.4505H85.5514V32.0143H85.9815V28.3695L85.5511 28.3698ZM87.6531 30.9945C87.785 31.0014 87.9166 30.9745 88.0367 30.9159C88.1568 30.8574 88.262 30.7689 88.3434 30.658C88.5075 30.4337 88.5896 30.0949 88.5896 29.6415V29.3754C88.6072 29.0735 88.5209 28.7751 88.3469 28.5362C88.2596 28.4342 88.1519 28.3544 88.0319 28.3026C87.9118 28.2507 87.7824 28.2282 87.6531 28.2367C87.506 28.2326 87.3598 28.2611 87.2236 28.3203C87.0874 28.3795 86.9642 28.4682 86.8618 28.5808C86.7594 28.6934 86.6801 28.8274 86.6288 28.9744C86.5776 29.1213 86.5555 29.278 86.564 29.4345V29.5825C86.564 30.0507 86.668 30.4032 86.8762 30.6398C86.9745 30.7546 87.0948 30.8456 87.2289 30.9067C87.3629 30.9679 87.5078 30.9977 87.6536 30.9942L87.6531 30.9945ZM89.6232 26.8911V26.3957H90.6638V30.9058H91.1217V31.3716H89.6232V30.9058H90.0811V26.8908L89.6232 26.8911ZM91.5101 28.3698V27.8301H92.5507V30.9058H93.0092V31.3716H91.5107V30.9058H91.9686V28.3695L91.5101 28.3698ZM92.4882 27.1794C92.4161 27.2552 92.3189 27.2978 92.2176 27.2978C92.1163 27.2978 92.0191 27.2552 91.947 27.1794C91.9116 27.1422 91.8835 27.0977 91.8644 27.0487C91.8454 26.9996 91.8357 26.947 91.836 26.894C91.8364 26.8409 91.8467 26.7885 91.8663 26.7397C91.886 26.691 91.9146 26.6469 91.9505 26.6101C91.9855 26.5726 92.0271 26.5429 92.073 26.5226C92.1188 26.5022 92.1679 26.4918 92.2176 26.4918C92.2672 26.4918 92.3164 26.5022 92.3622 26.5226C92.408 26.5429 92.4497 26.5726 92.4847 26.6101C92.5206 26.6469 92.5492 26.691 92.5688 26.7397C92.5885 26.7885 92.5988 26.8409 92.5991 26.894C92.5994 26.947 92.5898 26.9996 92.5707 27.0487C92.5517 27.0977 92.5236 27.1422 92.4882 27.1794ZM95.5343 28.8282V28.2514C95.3669 28.2038 95.1941 28.1814 95.0209 28.1848C94.885 28.1804 94.7496 28.205 94.6228 28.257C94.4959 28.3091 94.3801 28.3876 94.282 28.488C94.1775 28.6088 94.0973 28.7512 94.0466 28.9064C93.9959 29.0615 93.9757 29.2262 93.9873 29.3901V29.6562C93.9873 30.5286 94.348 30.9648 95.0694 30.9648C95.4417 30.9531 95.803 30.8273 96.11 30.6024V31.0608C95.9895 31.1813 95.8465 31.2735 95.6904 31.3313C95.4719 31.4176 95.24 31.4589 95.0071 31.4533C94.7891 31.4637 94.5715 31.4247 94.3688 31.3386C94.1661 31.2526 93.9829 31.1216 93.8313 30.9543C93.5376 30.6216 93.3907 30.1645 93.3907 29.5828V29.5754C93.3854 29.2863 93.4325 28.9988 93.5294 28.7288C93.607 28.5072 93.7359 28.3101 93.904 28.1557C94.0555 28.0212 94.2281 27.9161 94.4139 27.8453C94.6 27.7757 94.7959 27.7407 94.9931 27.7418C95.4833 27.7418 95.8371 27.8527 96.0545 28.0746V28.8287L95.5343 28.8282ZM96.8454 28.8725V28.1623C97.1089 27.8814 97.4905 27.741 97.99 27.741C98.8086 27.741 99.2225 28.1796 99.2318 29.057V30.6022C99.2241 30.6994 99.246 30.7967 99.2943 30.8795C99.3263 30.912 99.3647 30.9365 99.4067 30.9511C99.4487 30.9657 99.4932 30.9702 99.537 30.9641C99.5857 30.9647 99.6343 30.9622 99.6827 30.9567V31.319C99.5658 31.3778 99.4373 31.4057 99.3081 31.4003C98.8965 31.4003 98.6768 31.1588 98.6491 30.6758C98.5196 31.2032 98.1706 31.467 97.602 31.467C97.343 31.4801 97.0887 31.3905 96.888 31.2155C96.7977 31.1297 96.7265 31.0234 96.6797 30.9044C96.6329 30.7855 96.6117 30.6569 96.6175 30.528V30.5206C96.6152 30.3835 96.6438 30.2479 96.7008 30.1251C96.7468 30.0232 96.809 29.9307 96.8847 29.8515C96.9792 29.7682 97.0874 29.7043 97.2038 29.663C97.3494 29.6038 97.4673 29.5607 97.5575 29.5336C97.6478 29.5066 97.7876 29.4708 97.9772 29.4264C98.1675 29.3941 98.3495 29.3198 98.5114 29.2083C98.5592 29.1627 98.5967 29.106 98.6207 29.0426C98.6448 28.9791 98.6549 28.9106 98.6502 28.8424V28.8277C98.6527 28.7413 98.6372 28.6553 98.6048 28.5761C98.5724 28.4968 98.5239 28.4262 98.4628 28.3693C98.3045 28.2394 98.1068 28.1762 97.9075 28.1919C97.7252 28.1932 97.5444 28.2282 97.3734 28.2954V28.8727L96.8454 28.8725ZM97.8096 31.0388C97.9204 31.0384 98.0298 31.0132 98.1308 30.9647C98.2318 30.9163 98.3221 30.8458 98.3959 30.7578C98.4831 30.655 98.5504 30.5349 98.5939 30.4043C98.6375 30.2738 98.6564 30.1353 98.6497 29.9969V29.4727C98.4607 29.6187 98.2495 29.7287 98.0254 29.7981C97.7963 29.874 97.5744 29.973 97.3629 30.0938C97.3111 30.134 97.2701 30.1879 97.2439 30.2502C97.2178 30.3125 97.2074 30.381 97.2137 30.4489V30.4859C97.2135 30.8543 97.4121 31.0385 97.8095 31.0385L97.8096 31.0388ZM102.138 26.8911V26.3957H103.262V30.9058H103.692V31.3716H102.818C102.725 31.0864 102.678 30.7864 102.68 30.4844C102.614 30.7683 102.462 31.0207 102.246 31.2015C102.021 31.3791 101.746 31.4703 101.466 31.4602C101.267 31.4669 101.069 31.422 100.891 31.3293C100.712 31.2365 100.557 31.0988 100.439 30.9279C100.168 30.5126 100.034 30.0129 100.058 29.5076V29.5001C100.058 28.9478 100.193 28.5177 100.464 28.21C100.59 28.0611 100.745 27.9428 100.918 27.8631C101.091 27.7834 101.278 27.7441 101.466 27.7479C102.095 27.7479 102.5 28.0584 102.68 28.6794V26.8908L102.138 26.8911ZM101.59 31.0018C101.735 31.0037 101.878 30.973 102.011 30.9118C102.144 30.8506 102.263 30.7603 102.361 30.6467C102.47 30.5167 102.555 30.3649 102.61 30.2C102.665 30.0351 102.688 29.8603 102.68 29.6856V29.5526C102.68 29.1138 102.576 28.7861 102.367 28.5693C102.265 28.4622 102.143 28.3781 102.01 28.3222C101.876 28.2663 101.733 28.2397 101.59 28.244C100.966 28.244 100.654 28.6309 100.654 29.4048V29.6709C100.636 30.016 100.722 30.3582 100.9 30.6469C100.979 30.7622 101.083 30.8549 101.203 30.9167C101.324 30.9786 101.457 31.0077 101.59 31.0015L101.59 31.0018ZM104.337 28.8727V28.1625C104.6 27.8816 104.982 27.7411 105.482 27.7411C106.3 27.7411 106.714 28.1798 106.723 29.0571V30.6024C106.716 30.6996 106.738 30.7968 106.786 30.8797C106.818 30.9122 106.856 30.9366 106.898 30.9513C106.94 30.9659 106.985 30.9703 107.029 30.9643C107.077 30.9649 107.126 30.9624 107.174 30.9568V31.3192C107.057 31.3779 106.929 31.4058 106.8 31.4005C106.388 31.4005 106.168 31.159 106.141 30.676C106.011 31.2034 105.662 31.4671 105.093 31.4671C104.835 31.4803 104.58 31.3907 104.38 31.2157C104.289 31.1298 104.218 31.0236 104.171 30.9046C104.124 30.7856 104.103 30.657 104.109 30.5282V30.5207C104.107 30.3837 104.135 30.2481 104.192 30.1253C104.238 30.0234 104.301 29.9308 104.376 29.8517C104.471 29.7684 104.579 29.7045 104.695 29.6631C104.841 29.604 104.959 29.5608 105.049 29.5338C105.139 29.5067 105.279 29.471 105.469 29.4266C105.659 29.3943 105.841 29.32 106.003 29.2085C106.051 29.1629 106.088 29.1061 106.112 29.0427C106.136 28.9793 106.146 28.9108 106.142 28.8426V28.8279C106.144 28.7414 106.129 28.6555 106.096 28.5762C106.064 28.497 106.015 28.4264 105.954 28.3695C105.796 28.2395 105.598 28.1764 105.399 28.1921C105.217 28.1933 105.036 28.2283 104.865 28.2956V28.8727H104.337ZM105.301 31.039C105.412 31.0386 105.521 31.0133 105.622 30.9649C105.723 30.9165 105.814 30.846 105.887 30.758C105.975 30.6552 106.042 30.5351 106.085 30.4045C106.129 30.2739 106.148 30.1355 106.141 29.9971V29.4729C105.952 29.6188 105.741 29.7289 105.517 29.7982C105.288 29.8742 105.066 29.9732 104.854 30.094C104.803 30.1341 104.762 30.188 104.735 30.2503C104.709 30.3126 104.699 30.3811 104.705 30.4491V30.4861C104.705 30.8544 104.904 31.0385 105.302 31.0385L105.301 31.039ZM109.297 28.7249V28.2369C109.163 28.2012 109.026 28.1838 108.888 28.1852C108.402 28.1852 108.159 28.37 108.159 28.7396C108.151 28.8256 108.169 28.9121 108.209 28.9874C108.249 29.0626 108.309 29.1229 108.382 29.1601C108.577 29.2375 108.779 29.2908 108.985 29.319C109.205 29.3445 109.418 29.4188 109.61 29.5372C109.738 29.6278 109.841 29.7528 109.909 29.8994C109.977 30.0461 110.008 30.2093 109.998 30.3726C110.006 30.5259 109.978 30.6788 109.918 30.8182C109.857 30.9575 109.766 31.079 109.652 31.1722C109.391 31.3693 109.076 31.4682 108.757 31.4533C108.332 31.4697 107.914 31.3401 107.564 31.0836V30.3735H108.084V30.9206C108.278 30.9885 108.482 31.021 108.687 31.0167C109.195 31.0167 109.45 30.8121 109.45 30.4031C109.457 30.3251 109.445 30.2466 109.414 30.1753C109.384 30.1041 109.336 30.0427 109.276 29.9973C109.097 29.9119 108.906 29.8546 108.711 29.8272C108.503 29.7942 108.299 29.7347 108.104 29.6498C107.959 29.5811 107.835 29.4697 107.747 29.3285C107.663 29.1646 107.623 28.979 107.632 28.7925C107.623 28.6432 107.649 28.4938 107.706 28.3573C107.764 28.2207 107.851 28.1011 107.962 28.0088C108.219 27.8194 108.527 27.7258 108.839 27.7427C109.183 27.7205 109.525 27.8136 109.817 28.0088V28.7259L109.297 28.7249Z" fill="#ED1C24"/>
</svg>
