<svg width="152" height="72" viewBox="-14 -14 152 72" fill="none" xmlns="http://www.w3.org/2000/svg"><rect x="-14" y="-14" width="152" height="72" rx="10" fill="#FFFFFF"/>
<g clip-path="url(#clip0_4548_3773)">
<path d="M106.167 11.0576L98.2979 16.0641V27.9268L96.62 28.9986V17.1405L93.9743 18.8229L88.8051 22.1153V44L106.167 32.9378V11.0576Z" fill="#00BFFF"/>
<path d="M96.62 28.9987L98.2979 27.9268V16.0641L106.167 11.0577L88.8051 0V7.9778L93.9743 11.2702V18.8229L96.62 17.1405V28.9987Z" fill="#231F20"/>
<path d="M106.167 11.0576V32.9378L123.538 44V34.0322L114.1 28.0127V26.0454L123.538 32.0694V22.1153L117.094 18.0133L106.167 11.0576Z" fill="#231F20"/>
<path d="M123.538 6.01953V0L106.167 11.0577L117.094 18.0134L123.538 13.9114V7.9778L115.122 13.3416V11.3833L123.538 6.01953Z" fill="#00BFFF"/>
<path d="M119.35 19.4515L123.538 22.1153V16.7832L119.35 19.4515Z" fill="#00BFFF"/>
<path d="M12.2471 25.4532H14.8159V35.6877C14.8159 39.0028 13.1607 40.5947 10.3974 40.5947C7.63408 40.5947 6.01048 38.84 6.01048 35.5566V25.4532H8.5793V22.1698H0V25.4532H2.33816V35.7511C2.33816 41.2731 5.62154 43.9369 10.3974 43.9369C15.1732 43.9369 18.3887 41.2731 18.3887 35.6832V25.4487H20.7269V22.1653H12.2471V25.4487V25.4532Z" fill="#231F20"/>
<path d="M22.8479 28.2797H26.3212V25.3536H30.2875V40.6579H27.6237V43.9413H36.6236V40.6579H33.9598V25.3536H37.9216V28.2797H41.3994V22.1697H22.8479V28.2797Z" fill="#231F20"/>
<path d="M55.9939 40.6896H49.6261V34.2585H56.0888V31.1379H49.6261V25.4169H55.9622V28.2797H59.4672V22.1697H43.5161V25.4531H45.9538V40.6579H43.5161V43.9413H59.4672V37.8313H55.9939V40.6896Z" fill="#231F20"/>
<path d="M81.3971 25.5526C80.4021 24.4491 79.172 23.5536 77.7881 22.925C76.9107 22.4999 75.8796 22.1788 74.7218 22.0069C74.5952 21.9843 74.464 21.9707 74.3374 21.9572C74.1655 21.9391 73.9891 21.921 73.8127 21.9074C73.754 21.9029 73.6952 21.8984 73.6318 21.8938C73.3741 21.8757 73.1118 21.8667 72.8494 21.8667C72.8404 21.8667 72.8314 21.8667 72.8223 21.8667C72.8087 21.8667 72.7997 21.8667 72.7861 21.8667C72.4243 21.8667 72.067 21.8848 71.7188 21.9164C71.6419 21.9255 71.5696 21.93 71.4927 21.9391C71.3027 21.9572 71.1173 21.9888 70.9274 22.0114C65.7038 22.7441 62.036 26.4707 61.629 31.8932C61.6064 32.2279 61.5837 32.5626 61.5837 32.9063C61.5837 33.25 61.6064 33.5847 61.629 33.9193C62.036 39.3374 65.7038 43.0685 70.9274 43.8011C71.1128 43.8283 71.2982 43.8554 71.4927 43.8735C71.565 43.8825 71.6419 43.8916 71.7188 43.8961C72.0716 43.9278 72.4243 43.9458 72.7861 43.9458C72.7997 43.9458 72.8087 43.9458 72.8223 43.9458C72.8314 43.9458 72.8404 43.9458 72.8494 43.9458C73.1118 43.9458 73.3741 43.9323 73.6318 43.9187C73.6906 43.9187 73.7494 43.9097 73.8127 43.9051C73.9891 43.8916 74.1655 43.8735 74.3374 43.8554C74.464 43.8373 74.5952 43.8237 74.7218 43.8056C75.8796 43.6338 76.9107 43.3127 77.7881 42.8876C79.1675 42.2589 80.3931 41.368 81.388 40.2645H81.3971V36.0902H77.8921V38.7223C77.2906 39.2062 76.6393 39.6132 75.9293 39.9162C75.2871 40.1921 74.6087 40.3866 73.8806 40.477C73.7766 40.4906 73.6725 40.4997 73.564 40.5087C73.4012 40.5223 73.2339 40.5313 73.0575 40.5358C72.967 40.5358 72.8766 40.5449 72.7816 40.5449C68.3314 40.5132 65.3827 37.1439 65.3691 32.9063C65.3827 28.6686 68.3269 25.2993 72.7816 25.2677C72.8766 25.2677 72.967 25.2767 73.0575 25.2767C73.2339 25.2812 73.4012 25.2903 73.564 25.3038C73.668 25.3129 73.7766 25.3219 73.8806 25.3355C74.6087 25.4305 75.2871 25.6249 75.9293 25.8963C76.6348 26.1993 77.2861 26.6063 77.8876 27.0903V29.7314H81.3926V25.5571L81.3971 25.5526Z" fill="#231F20"/>
</g>
<defs>
<clipPath id="clip0_4548_3773">
<rect width="123.538" height="44" fill="white"/>
</clipPath>
</defs>
</svg>
